<svg width="24" height="24" xmlns="http://www.w3.org/2000/svg" fill="none">

 <g>
  <title>Layer 1</title>
  <g id="svg_2" fill="#010202">
   <path id="svg_3" d="m9.31066,6.09644l0,11.59546l-1.65091,0l0,-9.75456l-1.68364,0.70182l-0.59818,-1.39454l2.31182,-1.14818l1.62091,0z"/>
   <path id="svg_4" d="m15.4638,10.6164l2.8654,-2.86724l0,-1.65272l-6.8963,0l0,1.65181l4.6009,-0.01l-3.21,3.19905l0.2182,1.1555l1.3072,-0.0082l0.8591,0.1409c0.8437,0.1909 1.6209,1.0418 1.6209,1.9328c0,1.0363 -1.0191,1.9318 -2.0645,1.9318c-0.7709,0 -1.3655,-0.4809 -1.66,-1.1382l-0.0073,-0.0009l-1.74,0.5609c0.4382,1.5718 1.8873,2.3345 3.4318,2.3345c2.0828,0 3.8337,-1.6118 3.8337,-3.6754c-0.0009,-1.7437 -1.5246,-3.1446 -3.1591,-3.5546z"/>
  </g>
  <ellipse ry="10" rx="10" id="svg_5" cy="12.06243" cx="11.93743" fill="#3f7f00"/>
 </g>
</svg>